<?xml version="1.0" encoding="UTF-8"?>
<svg version="1.1" xmlns="http://www.w3.org/2000/svg" width="2000" height="917">
<path d="M0 0 C1.22951385 0.00310181 2.45902771 0.00620361 3.72579956 0.00939941 C21.65995681 0.06240692 39.4707125 0.27670254 57.3125 2.25 C59.15328125 2.45133545 59.15328125 2.45133545 61.03125 2.65673828 C140.92345751 11.6745712 223.3737159 36.74800042 287.51635742 86.86083984 C289.44303735 88.35095929 291.39519202 89.80303071 293.3515625 91.25390625 C296.97199764 93.96323273 300.45160114 96.79677842 303.875 99.75 C304.46724365 100.26062988 305.0594873 100.77125977 305.66967773 101.29736328 C322.13403425 115.59598215 337.27911521 130.7306848 350.3125 148.25 C351.04533203 149.23009033 351.04533203 149.23009033 351.79296875 150.22998047 C359.13063474 160.11649509 365.50412335 170.30285488 371.23242188 181.19970703 C372.19478947 183.0265522 373.18167053 184.84043598 374.171875 186.65234375 C388.91499284 214.54929837 396.21881514 245.83141664 397.3125 277.25 C397.33973145 277.90935547 397.36696289 278.56871094 397.39501953 279.24804688 C399.36190561 331.94574943 377.34194342 383.11307741 344.3125 423.25 C343.57894287 424.15709717 343.57894287 424.15709717 342.83056641 425.08251953 C330.86895647 439.84639748 317.31327162 453.58532533 302.3125 465.25 C300.43480452 466.85101074 298.55995955 468.45536873 296.6875 470.0625 C284.9857126 479.8139895 272.25252072 488.17096582 259.24902344 496.07080078 C257.33926968 497.23369925 255.43874242 498.41057862 253.5390625 499.58984375 C244.71399712 505.02909774 235.67260827 509.80138243 226.3125 514.25 C225.4344873 514.67039551 224.55647461 515.09079102 223.65185547 515.52392578 C208.81844655 522.59291252 193.80501541 528.78055696 178.3125 534.25 C176.87535645 534.76191895 176.87535645 534.76191895 175.40917969 535.28417969 C119.50723279 555.0532269 60.52196286 563.45744373 1.375 563.5 C0.38614807 563.50100708 -0.60270386 563.50201416 -1.621521 563.50305176 C-92.05335882 563.44151996 -186.47992518 540.49897748 -294.6875 466.25 C-295.595 465.52683594 -296.5025 464.80367188 -297.4375 464.05859375 C-305.21845974 457.74669542 -312.34223468 450.8110092 -319.4375 443.75 C-320.1719635 443.02330109 -320.1719635 443.02330109 -320.92126465 442.28192139 C-327.63871286 435.62048475 -333.82781929 428.68084126 -339.6875 421.25 C-340.16896484 420.65348633 -340.65042969 420.05697266 -341.14648438 419.44238281 C-373.40185749 379.47152444 -390.69176148 331.45524632 -391.6875 280.25 C-391.71710815 278.83098389 -391.71710815 278.83098389 -391.74731445 277.38330078 C-391.95488954 259.0061851 -388.85853283 240.84044646 -383.6875 223.25 C-383.47786621 222.5182959 -383.26823242 221.7865918 -383.05224609 221.03271484 C-375.5749941 195.36599689 -362.76135228 171.51386123 -346.6875 150.25 C-346.24792969 149.66621582 -345.80835938 149.08243164 -345.35546875 148.48095703 C-339.62911311 140.92076488 -333.59977257 133.77540283 -327.09765625 126.87109375 C-324.83584332 124.41132637 -322.75030906 121.87703473 -320.6875 119.25 C-319.0625 117.4375 -319.0625 117.4375 -317.6875 116.25 C-317.0275 116.25 -316.3675 116.25 -315.6875 116.25 C-315.6875 115.59 -315.6875 114.93 -315.6875 114.25 C-314.32421875 112.875 -314.32421875 112.875 -312.375 111.25 C-309.13043614 108.50589746 -306.02131465 105.67304706 -302.9375 102.75 C-282.58799747 84.25045224 -258.70096417 69.45498945 -234.6875 56.25 C-233.96143555 55.84442871 -233.23537109 55.43885742 -232.48730469 55.02099609 C-212.81106899 44.0422269 -191.86363987 35.83848215 -170.6875 28.25 C-169.84638672 27.94497559 -169.00527344 27.63995117 -168.13867188 27.32568359 C-136.56655245 15.96402474 -103.75563094 9.00598728 -70.5625 4.5625 C-69.79909302 4.45949585 -69.03568604 4.3564917 -68.24914551 4.25036621 C-45.494396 1.21353661 -22.95607361 -0.10349775 0 0 Z M7.3125 27.25 C6.36890625 28.10271484 6.36890625 28.10271484 5.40625 28.97265625 C1.43987204 32.55075926 -2.52650637 36.1254359 -6.5625 39.625 C-17.2044793 48.91254557 -27.68991462 58.43458496 -36.890625 69.17578125 C-38.8621243 71.45157718 -40.89884395 73.65922667 -42.9375 75.875 C-48.52270908 82.07552873 -53.63547486 88.61330077 -58.6875 95.25 C-59.14415039 95.84973633 -59.60080078 96.44947266 -60.07128906 97.06738281 C-72.5571896 113.56438999 -83.16130586 130.88711434 -92.6875 149.25 C-93.12980957 150.10045898 -93.57211914 150.95091797 -94.02783203 151.82714844 C-105.47310181 174.11051188 -113.3889704 197.79806374 -118.6875 222.25 C-118.94418457 223.43335938 -118.94418457 223.43335938 -119.20605469 224.640625 C-121.02248746 233.20969342 -121.95420954 241.45051442 -122.6875 250.25 C-27.6475 250.25 67.3925 250.25 165.3125 250.25 C164.59257137 241.6108565 163.68296105 234.01464872 161.8125 225.6875 C161.55404297 224.53290283 161.29558594 223.37830566 161.02929688 222.1887207 C152.15232356 184.11402282 135.04723949 149.21423799 111.3125 118.25 C110.86406738 117.65735352 110.41563477 117.06470703 109.95361328 116.45410156 C104.00760351 108.60459784 97.71388381 101.23812039 90.94140625 94.08984375 C88.3125 91.25 88.3125 91.25 86.08984375 88.37890625 C85.50332031 87.67636719 84.91679688 86.97382812 84.3125 86.25 C83.6525 86.25 82.9925 86.25 82.3125 86.25 C81.3225 84.27 81.3225 84.27 80.3125 82.25 C79.6525 82.25 78.9925 82.25 78.3125 82.25 C78.0546875 81.65574219 77.796875 81.06148437 77.53125 80.44921875 C76.20553053 78.05697497 74.90871136 76.80218361 72.8125 75.0625 C69.62723038 72.37169462 66.51419131 69.62713874 63.4375 66.8125 C37.6394581 43.40051176 37.6394581 43.40051176 7.3125 27.25 Z M-97.38671875 32.31640625 C-99.05565186 32.66759521 -99.05565186 32.66759521 -100.75830078 33.02587891 C-135.0743052 40.48950563 -168.31599632 50.41821743 -200.26513672 65.13574219 C-202.54525928 66.18457099 -204.83500468 67.20831161 -207.12890625 68.2265625 C-223.90427295 75.76801361 -239.50954637 85.28922548 -254.8125 95.4375 C-255.37563904 95.80905212 -255.93877808 96.18060425 -256.51898193 96.56341553 C-264.29051119 101.70737223 -271.57818855 107.22763158 -278.6875 113.25 C-279.33009766 113.78681396 -279.97269531 114.32362793 -280.63476562 114.87670898 C-284.34097281 117.97503392 -288.01080187 121.11677267 -291.6875 124.25 C-292.54601562 124.97058594 -293.40453125 125.69117188 -294.2890625 126.43359375 C-295.01867187 127.05363281 -295.74828125 127.67367187 -296.5 128.3125 C-297.12519531 128.83972656 -297.75039063 129.36695313 -298.39453125 129.91015625 C-299.9189691 131.17953162 -299.9189691 131.17953162 -299.6875 133.25 C-300.3475 133.25 -301.0075 133.25 -301.6875 133.25 C-301.6875 133.91 -301.6875 134.57 -301.6875 135.25 C-302.26242187 135.48976563 -302.83734375 135.72953125 -303.4296875 135.9765625 C-308.0761312 138.59722106 -311.24739497 143.25013065 -314.6875 147.25 C-315.45191406 148.11625 -316.21632813 148.9825 -317.00390625 149.875 C-340.21117057 176.79083868 -356.70393838 208.28354554 -364.4375 243 C-364.64866455 243.94681641 -364.8598291 244.89363281 -365.07739258 245.86914062 C-365.27357178 246.79404297 -365.46975098 247.71894531 -365.671875 248.671875 C-365.84428711 249.48237305 -366.01669922 250.29287109 -366.19433594 251.12792969 C-366.93290021 255.8035534 -367.25894032 260.53584356 -367.6875 265.25 C-341.6175 265.25 -315.5475 265.25 -288.6875 265.25 C-287.6975 257.66 -286.7075 250.07 -285.6875 242.25 C-277.79138376 204.74344787 -261.87629186 171.00853169 -237.6875 141.25 C-237.18557129 140.63092773 -236.68364258 140.01185547 -236.16650391 139.37402344 C-223.58207563 124.01549748 -209.45252471 109.34658008 -193.6875 97.25 C-192.62325201 96.37740469 -191.56226963 95.50081718 -190.50390625 94.62109375 C-175.59102918 82.29849088 -159.59455988 71.00961903 -142.77294922 61.43847656 C-140.34205632 60.05313512 -137.92371937 58.64678916 -135.50390625 57.2421875 C-119.69616741 48.12957115 -103.56765444 39.23650836 -86.6875 32.25 C-86.6875 31.92 -86.6875 31.59 -86.6875 31.25 C-90.42107617 31.13392367 -93.73509261 31.54686973 -97.38671875 32.31640625 Z M97.3125 32.25 C100.37926113 34.29450742 103.44797606 35.83964275 106.76171875 37.453125 C108.08640381 38.10232695 109.41077214 38.75217548 110.73486328 39.40258789 C111.43033264 39.74403839 112.125802 40.08548889 112.84234619 40.43728638 C158.30419828 62.82870494 205.09514109 92.30648829 237.109375 132.4921875 C238.52954641 134.2699198 239.97590172 136.0271969 241.453125 137.7578125 C273.03436076 174.90552507 286.53650388 218.81802719 293.3125 266.25 C319.7125 266.25 346.1125 266.25 373.3125 266.25 C371.731494 252.98200721 371.731494 252.98200721 369.125 240 C368.91141846 239.12504883 368.69783691 238.25009766 368.4777832 237.34863281 C360.74840492 206.78183235 346.18493164 179.62856844 326.3125 155.25 C325.82313965 154.64494629 325.3337793 154.03989258 324.82958984 153.41650391 C307.1840725 131.74625604 285.91235848 112.2469544 262.3125 97.25 C261.00397493 96.39250421 259.69676603 95.53299782 258.390625 94.671875 C254.05774488 91.82239579 249.69421101 89.02372543 245.3125 86.25 C244.66780762 85.84023926 244.02311523 85.43047852 243.35888672 85.00830078 C224.14265604 72.91579779 202.97392988 63.09191388 181.72265625 55.15332031 C179.21348719 54.21289026 176.71654033 53.24364577 174.21875 52.2734375 C136.66916441 37.85425349 136.66916441 37.85425349 97.3125 32.25 Z M79.3125 50.25 C82.45159203 53.39559867 85.60246239 56.52860009 88.76470947 59.65090942 C91.09061806 61.94962027 93.41084402 64.25403526 95.73095703 66.55859375 C96.94300571 67.7606255 98.1568486 68.96085104 99.37255859 70.15917969 C106.84999288 77.53290194 113.82368875 84.97865928 120.3125 93.25 C121.33603378 94.49402991 122.36294072 95.73529908 123.39453125 96.97265625 C135.2442092 111.38969382 145.14741235 127.0191978 154.3125 143.25 C154.68439453 143.89662598 155.05628906 144.54325195 155.43945312 145.20947266 C175.59774958 180.43316263 185.11628929 219.58098336 188.98706055 259.63476562 C189.29082867 262.50580486 189.29082867 262.50580486 190.3125 266.25 C216.7125 266.25 243.1125 266.25 270.3125 266.25 C268.72092453 250.27822663 268.72092453 250.27822663 265.625 234.75 C265.36372314 233.6966748 265.10244629 232.64334961 264.83325195 231.55810547 C252.97896063 185.28394489 223.49050883 142.59028306 185.86328125 113.2421875 C183.03961599 111.03687466 180.34205986 108.71014381 177.625 106.375 C170.53714362 100.4714898 163.00950857 95.32247203 155.3125 90.25 C154.61866211 89.78899902 153.92482422 89.32799805 153.20996094 88.85302734 C134.81196138 76.69342994 115.32431948 65.90073993 95.4375 56.375 C94.60686035 55.97651855 93.7762207 55.57803711 92.92041016 55.16748047 C88.44529074 53.0782236 84.10140362 51.46318892 79.3125 50.25 Z M-83.6875 56.25 C-86.16252156 57.20264981 -88.49091698 58.22584748 -90.875 59.375 C-91.61967529 59.73045898 -92.36435059 60.08591797 -93.1315918 60.45214844 C-103.58984551 65.54623711 -113.64351834 71.39257518 -123.6875 77.25 C-124.60096191 77.78238281 -125.51442383 78.31476563 -126.45556641 78.86328125 C-136.82530672 84.93410797 -146.97286072 91.1654216 -156.6875 98.25 C-157.31076172 98.70342773 -157.93402344 99.15685547 -158.57617188 99.62402344 C-167.3715564 106.04679936 -175.89208498 112.71310879 -184.10327148 119.87060547 C-185.23326326 120.85449413 -186.368821 121.83200546 -187.50805664 122.80517578 C-199.89340943 133.46516751 -211.83344444 145.19107403 -221.6875 158.25 C-222.62253453 159.43451303 -223.55882762 160.61803322 -224.49609375 161.80078125 C-243.11655559 185.59492583 -256.24688116 213.2617926 -263.0625 242.6875 C-263.21823486 243.34758057 -263.37396973 244.00766113 -263.53442383 244.68774414 C-265.01065145 251.5956782 -265.1707486 258.01548035 -265.6875 265.25 C-239.6175 265.25 -213.5475 265.25 -186.6875 265.25 C-186.0275 258.65 -185.3675 252.05 -184.6875 245.25 C-184.15864266 241.44943886 -183.61531554 237.70667467 -182.9375 233.9375 C-182.76831055 232.99003906 -182.59912109 232.04257813 -182.42480469 231.06640625 C-175.58102611 194.20968041 -161.65287706 159.92583861 -141.6875 128.25 C-141.29046875 127.61900391 -140.8934375 126.98800781 -140.484375 126.33789062 C-124.12781485 100.58816097 -103.26799405 78.61230582 -81.6875 57.25 C-82.6775 56.755 -82.6775 56.755 -83.6875 56.25 Z M-367.6875 288.25 C-367.6875 331.15190248 -348.70263809 371.9780076 -322.6875 405.25 C-322.01460937 406.11753906 -321.34171875 406.98507812 -320.6484375 407.87890625 C-315.9788187 413.74653586 -310.98750236 419.26731164 -305.875 424.75 C-305.22837402 425.44512695 -304.58174805 426.14025391 -303.91552734 426.85644531 C-303.29758301 427.51225586 -302.67963867 428.16806641 -302.04296875 428.84375 C-301.49278076 429.42833984 -300.94259277 430.01292969 -300.37573242 430.61523438 C-299.81861572 431.15470703 -299.26149902 431.69417969 -298.6875 432.25 C-298.06141846 432.85650391 -297.43533691 433.46300781 -296.7902832 434.08789062 C-294.71378187 435.54853253 -294.71378187 435.54853253 -292.28344727 434.6394043 C-289.52580619 433.16345815 -286.82663055 431.64252939 -284.15234375 430.01953125 C-282.56583008 429.06143555 -282.56583008 429.06143555 -280.94726562 428.08398438 C-279.85091797 427.41689453 -278.75457031 426.74980469 -277.625 426.0625 C-271.12141697 422.12271643 -264.61682473 418.18581916 -258.06640625 414.32421875 C-257.10420166 413.75662842 -256.14199707 413.18903809 -255.15063477 412.60424805 C-252.6875 411.25 -252.6875 411.25 -249.6875 410.25 C-250.95651774 406.62033634 -252.68513893 403.59013105 -254.80932617 400.39379883 C-277.50620805 366.09422495 -285.44753124 328.52970326 -289.6875 288.25 C-315.4275 288.25 -341.1675 288.25 -367.6875 288.25 Z M-266.6875 288.25 C-263.39953431 327.70558829 -254.09842832 364.97140535 -230.21875 397.234375 C-228.68081474 398.49481047 -228.68081474 398.49481047 -226.47045898 397.96606445 C-223.36994998 397.16829334 -220.57497268 396.06311063 -217.62890625 394.80859375 C-216.44780273 394.31093506 -215.26669922 393.81327637 -214.04980469 393.30053711 C-213.42924194 393.03707489 -212.8086792 392.77361267 -212.16931152 392.50216675 C-201.2758254 387.87834159 -190.36080437 383.49819517 -179.12719727 379.74975586 C-178.28600342 379.45979736 -177.44480957 379.16983887 -176.578125 378.87109375 C-175.48032715 378.50649048 -175.48032715 378.50649048 -174.36035156 378.13452148 C-172.3213087 377.30284149 -172.3213087 377.30284149 -171.6875 374.25 C-172.48460721 371.43015834 -173.35732294 368.70339946 -174.3125 365.9375 C-182.69020013 340.46155308 -185.3601511 315.01451233 -187.6875 288.25 C-213.7575 288.25 -239.8275 288.25 -266.6875 288.25 Z M190.3125 289.25 C189.3225 299.48 188.3325 309.71 187.3125 320.25 C184.61798289 336.94103654 181.11997785 352.72922737 175.98925781 368.79418945 C175.21838258 371.59153214 174.7478585 374.38302398 174.3125 377.25 C175.1154248 377.52561768 175.91834961 377.80123535 176.74560547 378.08520508 C195.25979537 384.47027085 213.38214681 391.34641306 231.3125 399.25 C235.15563091 395.67609017 237.97820325 391.98213563 240.625 387.4375 C241.20084839 386.46115601 241.20084839 386.46115601 241.78833008 385.46508789 C245.99124551 378.2380077 249.74723601 370.80898005 253.3125 363.25 C254.11494141 361.55810547 254.11494141 361.55810547 254.93359375 359.83203125 C264.88661165 337.78027991 270.3125 313.39353273 270.3125 289.25 C243.9125 289.25 217.5125 289.25 190.3125 289.25 Z M293.3125 289.25 C292.6525 296.51 291.9925 303.77 291.3125 311.25 C290.79628814 314.98784318 290.27471899 318.62246231 289.5625 322.3125 C289.39186035 323.20984863 289.2212207 324.10719727 289.04541016 325.03173828 C283.02907515 355.40015834 270.55718641 383.58896493 253.3125 409.25 C254.39144531 409.84425781 255.47039063 410.43851562 256.58203125 411.05078125 C271.30999299 419.18502522 285.94275863 427.49517043 300.3125 436.25 C340.28340212 404.34775824 366.92916512 352.36780494 373.3125 302.25 C373.8075 295.815 373.8075 295.815 374.3125 289.25 C347.5825 289.25 320.8525 289.25 293.3125 289.25 Z M-163.6875 305.25 C-162.13672563 327.20147862 -157.29536659 348.61163849 -149.6875 369.25 C-144.23910827 368.64895965 -139.09279413 367.37302402 -133.79614258 365.9777832 C-58.71058708 346.24999937 20.11899476 344.62686648 144.3125 368.25 C146.97840383 368.91976407 149.64543681 369.58486444 152.3125 370.25 C156.01002397 359.48522276 159.07022246 348.67162816 161.5625 337.5625 C161.93109131 335.94541138 161.93109131 335.94541138 162.30712891 334.2956543 C163.6464601 328.16159126 164.64796599 322.0538326 165.39355469 315.82495117 C165.48309418 315.09250938 165.57263367 314.3600676 165.66488647 313.6054306 C165.88279318 311.8205344 166.09793671 310.03530121 166.3125 308.25 C165.63918691 308.24864347 164.96587383 308.24728694 164.27215731 308.24588931 C124.35635055 308.16521984 84.4405791 308.07425728 44.5248268 307.96994839 C39.73090686 307.95742968 34.93698671 307.94499688 30.14306641 307.93261719 C28.71150597 307.9289182 28.71150597 307.9289182 27.25102513 307.92514448 C11.80279206 307.88543279 -3.64544831 307.85267841 -19.0937026 307.82250018 C-34.94784679 307.791374 -50.80196002 307.75275958 -66.6560694 307.70720994 C-76.43700294 307.67934437 -86.21791387 307.65730294 -95.99887641 307.64273749 C-102.70821636 307.63218638 -109.4175125 307.61435436 -116.12681942 307.59083296 C-119.99632978 307.57748117 -123.86577879 307.56730506 -127.73531342 307.56578636 C-131.93579454 307.56405361 -136.13607661 307.54697134 -140.33651733 307.5284729 C-142.16047989 307.531375 -142.16047989 307.531375 -144.02129018 307.53433573 C-150.81101865 307.48966025 -157.09169363 306.89195534 -163.6875 305.25 Z M-139.6875 391.25 C-132.02891828 416.95513331 -111.97329634 442.50670797 -93.8828125 461.87890625 C-92.06279032 463.84465974 -90.31501419 465.84335427 -88.5703125 467.875 C-84.07522485 473.02654551 -79.26857422 477.85294016 -74.4375 482.6875 C-73.55964844 483.57759766 -72.68179688 484.46769531 -71.77734375 485.38476562 C-66.47284034 490.70091875 -60.99323578 495.59922926 -55.12988281 500.29125977 C-53.18883291 501.84794143 -51.29840559 503.42806853 -49.4375 505.078125 C-40.43514767 513.00633302 -30.68547357 519.64541153 -20.6875 526.25 C-19.88538086 526.78286621 -19.08326172 527.31573242 -18.25683594 527.86474609 C-15.94683012 529.39641117 -13.63138399 530.919316 -11.3125 532.4375 C-10.26980957 533.12392578 -10.26980957 533.12392578 -9.20605469 533.82421875 C-7.38581536 535.00239043 -5.54793746 536.13672509 -3.6875 537.25 C-2.8521875 537.75273438 -2.016875 538.25546875 -1.15625 538.7734375 C2.70152771 539.5181351 5.24855882 537.6372667 8.4375 535.6875 C9.47704834 535.07491333 9.47704834 535.07491333 10.53759766 534.44995117 C33.56631328 520.6424472 56.0004883 503.99757501 74.78271484 484.74511719 C76.3125 483.25 76.3125 483.25 78.75 481.4375 C79.5234375 480.8496875 79.5234375 480.8496875 80.3125 480.25 C80.3125 479.59 80.3125 478.93 80.3125 478.25 C80.88613281 478.0128125 81.45976563 477.775625 82.05078125 477.53125 C84.80572096 475.97059331 86.42431075 474.13950019 88.5 471.75 C89.28890625 470.84894531 90.0778125 469.94789063 90.890625 469.01953125 C91.68984375 468.10558594 92.4890625 467.19164062 93.3125 466.25 C94.79081384 464.64504738 96.26996784 463.04086818 97.75 461.4375 C102.96053515 455.63897044 107.66383552 449.49816613 112.3125 443.25 C112.71581543 442.7142334 113.11913086 442.1784668 113.53466797 441.62646484 C123.20711886 428.73376226 131.38886663 414.84596816 139.0625 400.6875 C139.39781738 400.07463135 139.73313477 399.4617627 140.07861328 398.83032227 C141.53963675 396.0732804 142.3125 394.42335108 142.3125 391.25 C53.72466211 367.94584409 -35.97318049 365.19126812 -139.6875 391.25 Z M-177.5625 403.25 C-178.23968079 403.49755035 -178.91686157 403.74510071 -179.61456299 404.00015259 C-190.78354012 408.09115563 -201.79622993 412.46277928 -212.6875 417.25 C-211.40029055 420.0488262 -210.02223684 422.20085976 -207.9296875 424.45703125 C-207.39061768 425.04009033 -206.85154785 425.62314941 -206.29614258 426.22387695 C-205.72404053 426.83062256 -205.15193848 427.43736816 -204.5625 428.0625 C-203.97428467 428.69051514 -203.38606934 429.31853027 -202.7800293 429.96557617 C-199.21547092 433.73494353 -195.59004017 437.32437625 -191.59765625 440.64453125 C-190.25914517 441.7695375 -188.95663259 442.93812662 -187.68359375 444.13671875 C-162.75038298 467.59561793 -131.80480897 485.41720674 -101.46191406 500.83496094 C-98.74487505 502.22073691 -96.03965692 503.62751028 -93.3359375 505.0390625 C-91.70351449 505.88096397 -90.0707227 506.72215092 -88.4375 507.5625 C-87.69290527 507.95397217 -86.94831055 508.34544434 -86.18115234 508.7487793 C-84.38710603 509.65975568 -82.54027099 510.46532187 -80.6875 511.25 C-79.6975 510.92 -78.7075 510.59 -77.6875 510.25 C-78.14390869 509.86360352 -78.60031738 509.47720703 -79.07055664 509.07910156 C-85.01311501 503.97176546 -90.58393756 498.53706744 -96.125 493 C-97.01509766 492.12214844 -97.90519531 491.24429688 -98.82226562 490.33984375 C-104.8846277 484.29076662 -110.34758843 477.93889214 -115.6875 471.25 C-116.56259236 470.21070774 -117.44270303 469.17557447 -118.33203125 468.1484375 C-128.70362829 456.0762723 -137.58632092 442.93163904 -145.6875 429.25 C-146.50870448 427.88647168 -147.33034304 426.52320472 -148.15234375 425.16015625 C-153.41884292 416.37372127 -158.26422658 407.49200505 -162.6875 398.25 C-167.3120293 398.25 -173.1511954 401.63424742 -177.5625 403.25 Z M164.3125 399.25 C163.85101562 400.19617188 163.38953125 401.14234375 162.9140625 402.1171875 C149.7892545 428.82162358 134.27848078 453.22239011 114.68237305 475.67480469 C113.72772073 476.77254426 112.78190491 477.87800456 111.84301758 478.98925781 C106.43492061 485.31997466 100.53201439 491.14221847 94.625 497 C93.58244637 498.03752341 92.54012717 499.07528243 91.49804688 500.11328125 C89.58908237 502.01415571 87.67853415 503.91338334 85.7668457 505.81152344 C83.61104766 507.95338267 81.45992994 510.0997556 79.3125 512.25 C87.19283771 509.86482826 94.47935584 506.53023418 101.875 502.9375 C102.5084433 502.63076355 103.1418866 502.3240271 103.79452515 502.00799561 C130.13285287 489.20665095 155.54693536 473.72262959 178.3125 455.25 C179.23546875 454.5178125 180.1584375 453.785625 181.109375 453.03125 C190.92584685 445.1558884 200.05228399 436.58559785 209 427.75 C209.91906128 426.85051636 209.91906128 426.85051636 210.85668945 425.93286133 C211.42347412 425.36720459 211.99025879 424.80154785 212.57421875 424.21875 C213.07912842 423.71794922 213.58403809 423.21714844 214.10424805 422.70117188 C215.55020903 421.1435371 215.55020903 421.1435371 216.3125 418.25 C210.13896782 415.03598207 203.8650594 412.38162182 197.375 409.875 C196.37170654 409.48578369 195.36841309 409.09656738 194.3347168 408.69555664 C188.12046707 406.29853994 181.89239203 403.94217744 175.625 401.6875 C174.59354858 401.31069092 174.59354858 401.31069092 173.54125977 400.92626953 C170.21982576 399.75449352 167.89201974 399.25 164.3125 399.25 Z M238.3125 428.25 C236.95758116 429.74932062 235.60361322 431.24950054 234.25 432.75 C233.01636719 434.11705078 233.01636719 434.11705078 231.7578125 435.51171875 C229.68123734 437.83708487 227.6477388 440.19054397 225.625 442.5625 C222.75519608 445.8631059 219.71756831 448.51114071 216.3125 451.25 C214.64024991 452.91106447 212.97428627 454.57846718 211.3125 456.25 C184.54579387 481.87518484 152.17204207 501.54817584 119.4375 518.5625 C118.33293457 519.13718018 117.22836914 519.71186035 116.09033203 520.30395508 C108.58839663 524.16806232 101.00092428 527.77295385 93.3125 531.25 C97.04882956 532.49544319 98.99223301 531.89910055 102.83984375 531.09765625 C103.49173676 530.96287872 104.14362976 530.8281012 104.8152771 530.6892395 C106.9625087 530.24060344 109.10638382 529.77808916 111.25 529.3125 C112.35702774 529.0745018 112.35702774 529.0745018 113.48641968 528.83169556 C152.00700807 520.51110713 189.40667429 507.63373487 224.3125 489.25 C225.22676758 488.77159668 226.14103516 488.29319336 227.08300781 487.80029297 C239.60534851 481.22312697 251.80596505 474.48924725 263.3125 466.25 C264.09512207 465.69151367 264.87774414 465.13302734 265.68408203 464.55761719 C270.91457743 460.81709365 276.12267931 457.04673055 281.3125 453.25 C278.50854762 450.24724931 275.73925615 448.11758786 272.19921875 446.04296875 C271.20470703 445.45918457 270.21019531 444.87540039 269.18554688 444.27392578 C268.13431641 443.66790527 267.08308594 443.06188477 266 442.4375 C264.92943359 441.81601074 263.85886719 441.19452148 262.75585938 440.55419922 C254.7932728 435.98206379 246.7594773 431.85079481 238.3125 428.25 Z M-235.6875 428.25 C-256.92072931 438.41120736 -256.92072931 438.41120736 -275.6875 452.25 C-241.7532476 478.00075101 -204.76374299 497.777499 -164.6875 512.25 C-163.75276855 512.59482422 -162.81803711 512.93964844 -161.85498047 513.29492188 C-148.06147574 518.35015883 -133.98379554 522.11214542 -119.75 525.6875 C-118.8718866 525.90913818 -117.99377319 526.13077637 -117.08905029 526.35913086 C-114.55213766 526.99604649 -112.01302048 527.62310173 -109.47265625 528.24609375 C-108.72034225 528.43425156 -107.96802826 528.62240936 -107.19291687 528.81626892 C-102.03633225 530.06078357 -96.96938604 530.74899925 -91.6875 531.25 C-95.23331505 528.22643678 -99.24862655 526.64477726 -103.5 524.875 C-115.06146308 519.89050264 -125.83733992 513.60514723 -136.6875 507.25 C-137.56760742 506.73888672 -138.44771484 506.22777344 -139.35449219 505.70117188 C-156.58998005 495.67491538 -173.09957226 484.69520038 -188.6875 472.25 C-189.6053125 471.52554688 -190.523125 470.80109375 -191.46875 470.0546875 C-204.80494574 459.36273747 -216.78123213 447.28248691 -228.796875 435.15673828 C-231.0867133 432.84738431 -233.38560455 430.54732819 -235.6875 428.25 Z " fill="#FFFFFF" transform="translate(957.6875,8.75)"/>
<path d="M0 0 C37.62 0 75.24 0 114 0 C114.33 37.29 114.66 74.58 115 113 C119.89456184 104.29855673 124.53360559 96.02472045 128.90966797 87.14990234 C132.06745198 80.74992002 135.50645068 74.51173817 138.94458008 68.25927734 C143.54227037 59.88088569 148.02786125 51.4457753 152.5 43 C157.57949955 33.41248523 162.67983083 23.83806048 167.875 14.3125 C168.35646484 13.42884766 168.83792969 12.54519531 169.33398438 11.63476562 C171.80534593 7.11888144 171.80534593 7.11888144 173 5 C173.34462595 4.14465353 173.6892519 3.28930706 174.04432106 2.408041 C176 0 176 0 179.69894981 -0.61803246 C181.28688756 -0.64042951 182.87535667 -0.63479554 184.46322632 -0.60800171 C185.33960485 -0.61298082 186.21598338 -0.61795992 187.11891884 -0.62308991 C190.07505191 -0.63371905 193.02980814 -0.60843901 195.98583984 -0.58349609 C198.10780049 -0.58370163 200.22976188 -0.5860944 202.35171795 -0.59050751 C208.16531754 -0.59619996 213.97842327 -0.57063786 219.79192853 -0.53980017 C225.96774926 -0.51225788 232.14357031 -0.51295718 238.31944275 -0.51028442 C249.54492494 -0.50114549 260.77021353 -0.46957212 271.99560279 -0.42647482 C282.23268771 -0.38733478 292.46973343 -0.35931319 302.70687866 -0.34204102 C303.71710982 -0.34031851 303.71710982 -0.34031851 304.74774969 -0.33856121 C307.46877946 -0.33393887 310.1898093 -0.32936342 312.91083926 -0.32485671 C390.60878276 -0.19543187 468.30615284 0.18140067 546 1 C546 26.74 546 52.48 546 79 C524.88 79 503.76 79 482 79 C482.00785522 88.8525061 482.00785522 88.8525061 482.01586914 98.90405273 C482.0323991 120.54538278 482.04351966 142.18671306 482.05181217 163.82804775 C482.05697591 176.95608783 482.06402007 190.08412195 482.07543945 203.2121582 C482.08538393 214.65002559 482.09185286 226.08788865 482.09408849 237.52576023 C482.095396 243.58609715 482.09848439 249.64642171 482.10573006 255.70675468 C482.11248656 261.40376745 482.11461772 267.10076269 482.11310768 272.79777908 C482.11338418 274.89529706 482.11539148 276.99281559 482.11920547 279.09033012 C482.12413694 281.94077083 482.12300032 284.79114424 482.12025452 287.6415863 C482.12462378 288.90372071 482.12462378 288.90372071 482.12908131 290.19135278 C482.11412121 295.88587879 482.11412121 295.88587879 481 297 C479.51983606 297.09568576 478.03511727 297.12188268 476.55186462 297.12025452 C475.59328269 297.12163201 474.63470076 297.12300951 473.64707088 297.12442875 C472.58267568 297.12083064 471.51828047 297.11723253 470.42163086 297.11352539 C469.29152116 297.11364593 468.16141146 297.11376646 466.99705601 297.11389065 C463.31963226 297.1131411 459.64225849 297.10551097 455.96484375 297.09765625 C453.70218938 297.09618696 451.43953466 297.09516617 449.17687988 297.09460449 C440.76374809 297.0893501 432.35062356 297.07538904 423.9375 297.0625 C405.148125 297.041875 386.35875 297.02125 367 297 C367 225.06 367 153.12 367 79 C346.21 79 325.42 79 304 79 C303.67 53.92 303.34 28.84 303 3 C294.06011606 17.1547452 294.06011606 17.1547452 285.125 31.3125 C280.17371332 39.15699095 275.19516038 46.98395584 270.21142578 54.80786133 C266.4613906 60.697161 262.72457232 66.59456801 259 72.5 C252.96163108 82.07265583 246.88486342 91.62067585 240.80419922 101.16650391 C238.97374338 104.04123603 237.14483969 106.91694994 235.31640625 109.79296875 C234.71304443 110.74139648 234.10968262 111.68982422 233.48803711 112.66699219 C232.30082845 114.53497446 231.1154023 116.40409098 229.93188477 118.27441406 C227.3653583 122.3235367 224.78215831 126.3521977 222.0859375 130.31640625 C221.65450439 130.95835937 221.22307129 131.6003125 220.77856445 132.26171875 C219.65666157 133.92306299 218.51850394 135.57339949 217.37890625 137.22265625 C215.72291812 140.55808843 215.99979027 141.49632798 217 145 C218.13152379 147.36475444 218.13152379 147.36475444 219.58984375 149.703125 C220.12158203 150.59193359 220.65332031 151.48074219 221.20117188 152.39648438 C221.77416016 153.33814453 222.34714844 154.27980469 222.9375 155.25 C224.13430607 157.24467679 225.33091895 159.2394695 226.52734375 161.234375 C227.12015137 162.21728516 227.71295898 163.20019531 228.32373047 164.21289062 C230.57688204 167.95917352 232.79105241 171.72754965 235 175.5 C243.97008626 190.76644934 252.99709373 205.99933538 262.02609253 221.23098755 C266.58497222 228.92183076 271.13976875 236.61505919 275.6875 244.3125 C276.21069824 245.19776367 276.73389648 246.08302734 277.27294922 246.99511719 C279.95536318 251.53484289 282.63429158 256.07658438 285.30859375 260.62109375 C286.41385898 262.49751573 287.5193261 264.3738188 288.625 266.25 C289.15722168 267.15371338 289.68944336 268.05742676 290.23779297 268.98852539 C294.31820156 275.89647592 298.48912733 282.74602553 302.75048828 289.54394531 C306 294.78367619 306 294.78367619 306 297 C290.87377579 297.0234611 275.74755242 297.04104361 260.62131405 297.05181217 C253.59641343 297.05694725 246.57152418 297.06393619 239.54663086 297.07543945 C232.75796464 297.08655051 225.9693102 297.09229681 219.18063545 297.09487724 C216.60011167 297.09671449 214.01958848 297.10030194 211.43906975 297.10573006 C203.62521199 297.12150189 195.81324092 297.10546112 188 297 C187.15429506 296.98915312 186.30859013 296.97830624 185.43725777 296.96713066 C183.29590495 296.92717635 181.15927129 296.85591272 179.01953125 296.765625 C177.91512695 296.7241333 176.81072266 296.6826416 175.67285156 296.63989258 C172.25187427 295.82089537 171.30087304 294.55688068 169.41015625 291.65234375 C168.56738827 289.77325981 167.78703701 287.86526047 167.0625 285.9375 C166.18263228 283.91261238 165.3024218 281.88787366 164.421875 279.86328125 C164.01259766 278.86248535 163.60332031 277.86168945 163.18164062 276.83056641 C161.57950816 272.99273092 159.72020236 269.31750873 157.8125 265.625 C157.16603105 264.33821124 156.52147565 263.05045922 155.87890625 261.76171875 C155.41121826 260.82658447 155.41121826 260.82658447 154.93408203 259.87255859 C154.00330008 258.00661569 153.07725552 256.13838991 152.15234375 254.26953125 C148.42493858 246.75275885 144.59330326 239.30091523 140.6875 231.875 C131.93072556 215.01616323 123.49589872 197.99179745 115 181 C114.67 218.95 114.34 256.9 114 296 C76.05 296 38.1 296 -1 296 C-0.67 198.32 -0.34 100.64 0 0 Z " fill="#FFFFFF" transform="translate(748,614)"/>
<path d="M0 0 C40.92 0 81.84 0 124 0 C133.26301604 18.52603208 133.26301604 18.52603208 137.12060547 27.10449219 C137.40530701 27.73657593 137.69000854 28.36865967 137.9833374 29.01989746 C138.27758606 29.6733313 138.57183472 30.32676514 138.875 31 C139.51554089 32.41580182 140.15633671 33.83148832 140.79736328 35.24707031 C144.33692939 43.07000793 147.85618004 50.90208936 151.375 58.734375 C151.74341507 59.5543396 152.11183014 60.3743042 152.4914093 61.21911621 C152.86202988 62.04399536 153.23265045 62.86887451 153.61450195 63.71875 C153.98693024 64.54761719 154.35935852 65.37648438 154.74307251 66.23046875 C155.49794788 67.91072839 156.25264747 69.591067 157.00717163 71.27148438 C163.34170194 85.37601961 169.76446077 99.438435 176.25537109 113.47167969 C176.58885056 114.19409851 176.92233002 114.91651733 177.26591492 115.66082764 C177.86739307 116.96359737 178.47006137 118.26581909 179.07453918 119.56719971 C182.50230576 126.99509673 185.71893942 134.50043295 189 142 C189 95.14 189 48.28 189 0 C205.5825 -0.020625 222.165 -0.04125 239.25 -0.0625 C247.07380371 -0.07615601 247.07380371 -0.07615601 255.05566406 -0.09008789 C261.47607422 -0.09460449 261.47607422 -0.09460449 264.49163818 -0.09544373 C266.57611302 -0.09696885 268.66058703 -0.10046396 270.74505615 -0.10557556 C273.92152413 -0.11296858 277.09793868 -0.11390354 280.27441406 -0.11352539 C281.18680973 -0.1171235 282.0992054 -0.12072161 283.03924942 -0.12442875 C287.83191421 -0.11686625 292.55625499 0.09252482 297.33221054 0.50751591 C298.39799764 0.5992433 299.46378475 0.69097069 300.56186843 0.7854777 C301.36645185 0.85627006 302.17103527 0.92706242 303 1 C303.022865 38.5642333 303.04049753 76.12846556 303.05106533 113.69270441 C303.05231611 118.12269162 303.05361042 122.55267882 303.05493164 126.98266602 C303.05532511 128.30561959 303.05532511 128.30561959 303.05572652 129.65529949 C303.0600835 143.95534931 303.06797121 158.25539512 303.0771528 172.55544256 C303.08648855 187.21735804 303.09205544 201.87927141 303.09408849 216.54118973 C303.09546389 225.59587761 303.09981534 234.65055419 303.10791647 243.70523859 C303.11318296 249.90568934 303.11480452 256.10613421 303.11350138 262.30658703 C303.11285784 265.88941512 303.11387721 269.47222338 303.11920547 273.05504799 C303.1249267 276.93017437 303.1230011 280.8052745 303.12025452 284.68040466 C303.12462378 286.39778002 303.12462378 286.39778002 303.12908131 288.14984983 C303.12709026 289.17944258 303.12509921 290.20903532 303.12304783 291.26982784 C303.12342755 292.1655881 303.12380727 293.06134836 303.1241985 293.98425287 C303 296 303 296 302 297 C300.58939824 297.09766971 299.17394286 297.1263168 297.75996399 297.12698364 C296.84485046 297.12980347 295.92973694 297.13262329 294.9868927 297.13552856 C293.97455063 297.13350433 292.96220856 297.1314801 291.91918945 297.12939453 C290.32873306 297.13202301 290.32873306 297.13202301 288.70614624 297.13470459 C285.17517492 297.1391307 281.64425315 297.13617975 278.11328125 297.1328125 C275.65960175 297.13348597 273.20592231 297.13445636 270.75224304 297.13571167 C265.59125132 297.13719019 260.43027684 297.13503155 255.26928711 297.13037109 C248.6847891 297.12471257 242.10033221 297.12792702 235.51583576 297.13394356 C230.43773598 297.13757835 225.35964573 297.13639657 220.28154564 297.13381577 C217.85649803 297.13315252 215.43144954 297.13395368 213.00640297 297.13629532 C206.55836374 297.14114886 200.11211734 297.12017456 193.66461182 297.03317833 C191.98060406 297.01220996 190.29647089 296.99876191 188.61233521 296.99579811 C177.95532649 296.95385356 177.95532649 296.95385356 174.30810547 293.31225586 C173.87385254 292.14573486 173.43959961 290.97921387 172.9921875 289.77734375 C172.73654022 289.14690659 172.48089294 288.51646942 172.21749878 287.8669281 C171.69118141 286.56094955 171.1880295 285.24539782 170.70837402 283.92156982 C169.6421086 281.02916638 168.34322579 278.24785269 167.0703125 275.44140625 C166.08471651 273.15007908 165.10312506 270.85702632 164.125 268.5625 C163.28383375 266.60357432 162.44105797 264.64534552 161.5982666 262.68711853 C161.00201953 261.30146339 160.40624219 259.91560605 159.81091309 258.52955627 C156.50887918 250.84452823 153.16465057 243.17799206 149.81893921 235.51190186 C148.74708512 233.05582075 147.67581986 230.59948364 146.60473633 228.14306641 C143.63067896 221.32256934 140.65554058 214.50254398 137.68017578 207.68261719 C135.75872917 203.27837906 133.8376939 198.87396169 131.91687012 194.4694519 C130.84760062 192.01797401 129.77781704 189.56672091 128.70800781 187.11547852 C128.04098928 185.58611175 127.37399585 184.05673404 126.70703125 182.52734375 C126.42013931 181.8703952 126.13324738 181.21344666 125.83766174 180.53659058 C122.85950649 173.70452805 119.93607957 166.85085233 117 160 C116.67 205.21 116.34 250.42 116 297 C55.9325023 297 55.9325023 297 30.2979126 296.53643799 C26.72079953 296.47279132 23.14359877 296.41444832 19.56640625 296.35546875 C12.71085154 296.24174911 5.85539632 296.1228941 -1 296 C-1.02297142 264.64564885 -1.04059055 233.29129999 -1.05106533 201.93694238 C-1.05231556 198.2082871 -1.05360993 194.47963183 -1.05493164 190.75097656 C-1.05519395 190.0088833 -1.05545626 189.26679004 -1.05572652 188.5022091 C-1.06003998 176.5947235 -1.06790285 164.68724288 -1.0771528 152.77976021 C-1.08661118 140.49857328 -1.09208092 128.2173889 -1.09408849 115.93619847 C-1.09531983 109.064626 -1.0981976 102.19306377 -1.10573006 95.32149506 C-1.11268316 88.81095992 -1.11457929 82.30044023 -1.11310768 75.78990173 C-1.1133756 73.44114853 -1.1152634 71.09239463 -1.11920547 68.74364471 C-1.15569906 45.81109897 -0.5213701 22.94028426 0 0 Z " fill="#FFFFFF" transform="translate(1608,617)"/>
<path d="M0 0 C0.7051474 -0.00067474 1.4102948 -0.00134949 2.1368103 -0.00204468 C14.18834675 0.01618399 25.87137654 0.76342555 37.6875 3.25 C38.47833984 3.41628906 39.26917969 3.58257813 40.08398438 3.75390625 C67.93241397 9.87195018 94.78002977 22.76543853 115.22705078 42.82470703 C116.71527579 44.27710717 118.22834996 45.69962295 119.74609375 47.12109375 C148.1644316 74.12212568 160.59378797 111.88114093 162.6875 150.25 C162.7596875 151.45398438 162.831875 152.65796875 162.90625 153.8984375 C163.99163744 191.25385515 150.43904431 227.58433945 125.6875 255.25 C124.65302734 256.48363281 124.65302734 256.48363281 123.59765625 257.7421875 C115.16603098 267.70840306 104.52289429 275.10998988 93.6875 282.25 C92.82511719 282.83394531 91.96273438 283.41789062 91.07421875 284.01953125 C53.05066538 308.07294946 1.14735852 313.20660467 -42.17773438 303.61572266 C-72.43239778 296.64412458 -96.83885587 283.63517704 -119.3125 262.25 C-120.39144531 261.26773438 -120.39144531 261.26773438 -121.4921875 260.265625 C-145.92444543 237.30518984 -159.08817502 200.2475541 -160.4765625 167.36425781 C-161.91438305 120.55033199 -150.10442305 80.72727429 -117.68286133 46.16723633 C-87.1235893 14.68845635 -43.0990246 0.03726596 0 0 Z M-22.3125 86.25 C-40.96037231 107.98078668 -41.87317811 140.66786077 -39.84765625 167.80932617 C-38.08687085 187.60464715 -33.40577017 207.31775061 -18.3125 221.25 C-10.40448681 227.1649367 -1.88898042 228.02267446 7.6875 227.25 C12.39542259 226.15198611 16.76141548 224.07187325 20.6875 221.25 C20.6875 220.59 20.6875 219.93 20.6875 219.25 C21.27789063 219.01667969 21.86828125 218.78335938 22.4765625 218.54296875 C31.14663385 213.47266201 35.71702178 198.68136278 38.21923828 189.24462891 C39.23145899 184.94347599 40.01662001 180.61795963 40.6875 176.25 C40.87183594 175.10015625 41.05617188 173.9503125 41.24609375 172.765625 C42.03219883 166.19315446 41.93188069 159.54809659 41.9375 152.9375 C41.93817474 152.22513184 41.93884949 151.51276367 41.93954468 150.77880859 C41.90797754 129.7686685 39.39683807 108.28298577 27.6875 90.25 C27.26082031 89.58484375 26.83414062 88.9196875 26.39453125 88.234375 C21.41597323 81.51843163 12.84211032 77.48347047 4.6875 76.25 C-5.87423363 75.40506131 -14.88525965 78.79462616 -22.3125 86.25 Z " fill="#FFFFFF" transform="translate(1442.3125,608.75)"/>
<path d="M0 0 C1.21547516 0.00081573 1.21547516 0.00081573 2.45550537 0.00164795 C48.43145438 0.14300106 86.99911086 17.87820678 119.57421875 49.78125 C147.45698711 77.90833615 158.98560637 118.46789422 159.375 157.1875 C159.17415251 197.14827376 144.99200454 234.40233201 116.875 263 C94.16253705 285.47504048 65.21181527 298.41782885 34.0625 304.375 C33.38429199 304.50632324 32.70608398 304.63764648 32.00732422 304.77294922 C-10.07815684 312.41413791 -57.39837927 303.73642149 -93.25 280.4375 C-124.92318982 258.39841637 -145.24987236 227.72395664 -153.75 190.0625 C-161.60103312 146.057944 -154.96177113 100.99410334 -129.3125 63.875 C-105.43622746 30.41255957 -69.20282599 9.13716195 -28.96411133 1.83544922 C-19.28446921 0.27706931 -9.77770023 -0.0248006 0 0 Z M-23.9375 89.375 C-41.03088679 110.74173348 -41.01868661 145.73836692 -38.3984375 171.33984375 C-36.2576425 188.91362679 -32.11889729 210.29455046 -17.9375 222.375 C-8.95478353 228.35346347 -0.25761872 229.8400936 10.48046875 227.94921875 C20.35405056 224.73685581 26.38881526 216.16106911 31.0625 207.375 C45.41516993 177.11478756 45.42758063 136.14736913 34.44921875 104.90625 C32.42834056 99.76012639 30.0499026 95.0247476 27.0625 90.375 C26.68609375 89.78332031 26.3096875 89.19164062 25.921875 88.58203125 C21.96751303 83.16566925 14.72871149 78.48603525 8.0625 77.375 C-5.82073156 76.3203585 -14.44395073 79.09032163 -23.9375 89.375 Z " fill="#FFFFFF" transform="translate(341.9375,606.625)"/>
<path d="M0 0 C0 27.72 0 55.44 0 84 C-9 78 -9 78 -13.25 74.9375 C-28.92992946 64.4750602 -48.6491376 62.51492815 -66.82983398 66.07836914 C-87.02347475 70.71684819 -102.12322792 82.45788034 -113.1875 99.8125 C-116.52217995 105.61194338 -118.88796021 111.66388064 -121 118 C-121.32226562 118.92554688 -121.64453125 119.85109375 -121.9765625 120.8046875 C-128.17983592 142.19728462 -124.42352185 165.1293308 -114.078125 184.3984375 C-111.49761729 188.99422156 -108.47371314 193.0425049 -105 197 C-104.43539062 197.69480469 -103.87078125 198.38960937 -103.2890625 199.10546875 C-99.33459654 203.87408947 -95.1614702 207.58562538 -90 211 C-89.12601563 211.58910156 -88.25203125 212.17820312 -87.3515625 212.78515625 C-76.92564455 219.36773984 -65.31178351 222.57300173 -53 223 C-51.79859375 223.0515625 -50.5971875 223.103125 -49.359375 223.15625 C-32.92267005 223.64187534 -17.24955015 220.32933291 -3.5234375 210.91796875 C-2 210 -2 210 0 210 C0.19657455 236.01134883 -0.37555088 261.99734079 -1 288 C-9.6792222 291.05828769 -18.12911504 293.7586322 -27.25 295.1875 C-28.2404834 295.34766602 -29.2309668 295.50783203 -30.25146484 295.67285156 C-33.16528104 296.13280455 -36.08180533 296.56884424 -39 297 C-39.75635742 297.12004395 -40.51271484 297.24008789 -41.29199219 297.36376953 C-65.14758599 301.07427102 -92.40997254 301.19091049 -116 296 C-116.8048584 295.82307617 -117.6097168 295.64615234 -118.43896484 295.46386719 C-145.76251429 289.23170838 -172.76000393 277.37925547 -193.15234375 257.7421875 C-195.0850486 255.82252028 -195.0850486 255.82252028 -198 254 C-198 253.34 -198 252.68 -198 252 C-198.66 252 -199.32 252 -200 252 C-200 251.34 -200 250.68 -200 250 C-200.99 249.67 -201.98 249.34 -203 249 C-209.87413562 241.76697377 -215.52794272 233.31389919 -221 225 C-221.91072266 223.63681641 -221.91072266 223.63681641 -222.83984375 222.24609375 C-241.84237967 191.95406937 -246.87552296 151.53437876 -239 117 C-229.32865715 76.35897002 -205.27433291 41.04691929 -169.72167969 18.56933594 C-119.94599572 -11.93834133 -55.49478831 -15.8556538 0 0 Z " fill="#FFFFFF" transform="translate(744,615)"/>
<path d="M0 0 C37.29 0 74.58 0 113 0 C114.65406568 3.30813136 114.11124708 6.99564782 114.08229065 10.63052368 C114.07906152 11.5346976 114.07583239 12.43887152 114.07250541 13.37044466 C114.06038378 16.4183917 114.04102067 19.46625067 114.02172852 22.51416016 C114.01159065 24.6917654 114.00189645 26.86937275 113.99261475 29.04698181 C113.9660844 34.97438916 113.93331503 40.90174784 113.89946485 46.8291173 C113.86517057 53.0177646 113.83655954 59.20643804 113.80735779 65.39511108 C113.75435535 76.453976 113.69702137 87.51281283 113.63741725 98.57164399 C113.56194897 112.58576996 113.4923009 126.5999211 113.42356598 140.61408162 C113.28874535 168.07608968 113.14597209 195.5380488 113 223 C140.06 223 167.12 223 195 223 C195 247.42 195 271.84 195 297 C182.58331243 297.02824828 170.16670397 297.05142634 157.75 297.0625 C156.79725189 297.06335602 155.84450378 297.06421204 154.86288452 297.06509399 C119.07304703 297.09334824 83.28798122 296.85204413 47.5 296.5 C45.67582802 296.48206327 45.67582802 296.48206327 43.81480408 296.46376419 C28.8764606 296.31623539 13.93819698 296.16166542 -1 296 C-1.03152625 272.91667314 -1.05127636 249.83334528 -1.0625 226.75 C-1.0629343 225.88283041 -1.06336861 225.01566082 -1.06381607 224.12221336 C-1.09042218 169.49617416 -0.92472779 114.87442237 -0.5 60.25 C-0.49103943 59.09479009 -0.49103943 59.09479009 -0.48189783 57.9162426 C-0.33194482 38.61073025 -0.16797713 19.30537145 0 0 Z " fill="#FFFFFF" transform="translate(6,612)"/>
<path d="M0 0 C8.98082783 8.54273867 12.59295147 18.51529951 13.17578125 30.6640625 C13.02353232 41.41517955 9.21490608 50.18056742 2.125 58.25 C-6.17682054 65.05556218 -15.03824977 68.82983359 -25.75 68.6875 C-26.93190918 68.67831543 -26.93190918 68.67831543 -28.13769531 68.66894531 C-38.20304647 68.39937472 -45.81230829 64.67985525 -53.375 58.0625 C-61.72627781 48.66731247 -65.42698707 38.88761023 -64.875 26.125 C-63.33922446 14.21878137 -58.23657717 5.7091514 -48.875 -1.75 C-34.09424402 -11.6270775 -14.06131773 -11.09453421 0 0 Z M-50.62890625 10.4609375 C-56.13291246 18.44506217 -58.67132148 25.90736761 -57.3125 35.625 C-55.14304151 45.81018499 -50.06526433 51.76027444 -41.65625 57.65625 C-33.88210295 62.11109831 -25.22973617 62.40159964 -16.50390625 60.8203125 C-8.02048109 58.05509142 -1.25797713 51.78670883 2.96484375 44.05859375 C6.76755514 34.85270322 6.94995376 26.08874222 3.1875 16.98046875 C-0.46467861 9.5366186 -6.36384388 3.33394929 -14.1875 0.3125 C-27.78993271 -3.60684502 -41.39436434 -1.1799327 -50.62890625 10.4609375 Z " fill="#FFFFFF" transform="translate(1978.875,606.75)"/>
<path d="M0 0 C26.88888889 0 26.88888889 0 31.375 4.25 C33.96068873 8.62578092 34.21303813 11.62708761 33.4375 16.625 C31.67877479 20.75418094 29.95356074 21.98287717 26 24 C25.01 24 24.02 24 23 24 C23.30292969 24.57032959 23.60585937 25.14065918 23.91796875 25.72827148 C25.28077173 28.29689303 26.64042508 30.86716849 28 33.4375 C28.47695312 34.33533203 28.95390625 35.23316406 29.4453125 36.15820312 C29.89648438 37.01220703 30.34765625 37.86621094 30.8125 38.74609375 C31.23144531 39.53685303 31.65039062 40.3276123 32.08203125 41.14233398 C33 43 33 43 33 44 C27.94160028 44.72339975 27.94160028 44.72339975 25 44 C22.53621773 41.56740485 21.11489795 38.69524332 19.5625 35.625 C19.13001953 34.8309375 18.69753906 34.036875 18.25195312 33.21875 C16.78199896 30.50428066 15.38040639 27.76081278 14 25 C11.69 24.67 9.38 24.34 7 24 C7 30.6 7 37.2 7 44 C4.69 44 2.38 44 0 44 C0 29.48 0 14.96 0 0 Z M7 7 C7 10.3 7 13.6 7 17 C9.79192205 17.05380578 12.5828141 17.09357669 15.375 17.125 C16.1690625 17.14175781 16.963125 17.15851562 17.78125 17.17578125 C19.85492015 17.19335473 21.92883241 17.10335168 24 17 C26.20857238 15.17213728 26.20857238 15.17213728 26.4375 12.5625 C26.26471423 9.83509796 26.26471423 9.83509796 23.9296875 8.3515625 C20.30363465 6.67874345 17.66322446 6.70103109 13.6875 6.8125 C12.43324219 6.83957031 11.17898438 6.86664062 9.88671875 6.89453125 C8.45779297 6.94673828 8.45779297 6.94673828 7 7 Z " fill="#FFFFFF" transform="translate(1938,615)"/>
</svg>
